<svg xmlns="http://www.w3.org/2000/svg" width="3226.332" height="508.106" viewBox="0 0 3226.332 508.106">
  <g id="Capa_1-2" transform="translate(0.004 -0.001)">
    <path id="Trazado_47" data-name="Trazado 47" d="M1229.93,462.065A193.831,193.831,0,1,1,1367,405.293,192.57,192.57,0,0,1,1229.93,462.065Zm0-310.786a116.944,116.944,0,1,0,116.946,116.944A117.079,117.079,0,0,0,1229.93,151.278Z" transform="translate(617.583 44.335)" fill="#D9FAA6"/>
    <path id="Trazado_48" data-name="Trazado 48" d="M404.858,391.19,604.606,148.7l-200.035-.08.031-66.54,298.784.128V138.74L502.9,381.231l201.391.08-.031,67.258-299.424-.128V391.19Z" transform="translate(241.154 48.925)" fill="#D9FAA6"/>
    <path id="Trazado_49" data-name="Trazado 49" d="M614.036,267.549c.046-107.8,83.123-193,188.735-192.948,103.439.048,181.344,86.028,181.3,197.465v21.85l-289.193-.128c10.9,57.554,58.958,99.1,119.4,99.116,35.7,0,69.2-10.9,91.805-31.283l50.963,48.824c-43.716,34.938-88.885,50.228-146.425,50.2-109.984-.048-196.635-83.841-196.6-193.108Zm291.379-32.656c-10.9-53.915-53.134-93.258-104.129-93.274-53.9-.016-96.164,37.843-106.377,93.195Z" transform="translate(365.999 44.466)" fill="#D9FAA6"/>
    <path id="Trazado_50" data-name="Trazado 50" d="M1592.208,267.549c.05-107.8,83.123-193,188.733-192.948,103.444.048,181.344,86.028,181.3,197.465v21.85l-289.193-.128c10.9,57.554,58.961,99.1,119.4,99.116,35.7,0,69.208-10.9,91.808-31.283l50.962,48.824c-43.715,34.938-88.883,50.228-146.42,50.2-109.989-.048-196.639-83.841-196.606-193.108Zm291.375-32.656c-10.9-53.915-53.135-93.258-104.126-93.274-53.9-.016-96.163,37.843-106.382,93.195Z" transform="translate(949.055 44.466)" fill="#D9FAA6"/>
    <path id="Trazado_51" data-name="Trazado 51" d="M883.386,85.995l78,.032v35.752a103.127,103.127,0,0,1,34.763-32c26.239-14.588,51.871-13.088,65.406-12.306a144.389,144.389,0,0,1,37.2,7.166l-.033,69.413a113.913,113.913,0,0,0-44.37-8.6c-40.778-.016-74.422,22.872-93.05,63.651l-.1,243.289-78-.032.161-366.361Z" transform="translate(526.456 45.904)" fill="#D9FAA6"/>
    <path id="Trazado_52" data-name="Trazado 52" d="M1697.334,452.662H1620.45V269.753a116.943,116.943,0,1,0-233.887,0V452.662H1309.68V269.753a193.844,193.844,0,1,1,387.688,0V452.662Z" transform="translate(780.659 45.247)" fill="#D9FAA6"/>
    <path id="Trazado_53" data-name="Trazado 53" d="M2084.225,410.961c-8.84,9.561-23.526,17.4-38.846,17.4-.546,0-1.073,0-1.616-.032-23.812-.766-42.933-19.727-45.149-43.445-.5-5.283-.686-10.742-.686-16.2V192.38h108.15V125.265h-108.15V8.72l-78.162,18.61v97.935H1841.4V192.38h78.367V384.754q0,54.849,31.794,85.054,28.652,27.269,78.7,29.91c18.168.973,46.606-4.15,63.058-11.891,10.858-5.107,22.477-12.37,35.4-24.26l-44.516-52.606Z" transform="translate(1097.603 5.197)" fill="#D9FAA6"/>
    <path id="Trazado_54" data-name="Trazado 54" d="M15.836,308.6l84.671-42.024c.367-6.32,4.341-75.638,4.373-76.212C113.531,77.042,213.589-8.045,326.909.606c95.221,7.262,170.54,78.479,187.059,168.273a28.48,28.48,0,0,1-15.354,30.629l-84.671,42.024c-.367,6.32-4.341,75.638-4.373,76.212C400.919,431.066,300.862,516.152,187.541,507.5,92.319,500.239,16.985,429.023.466,339.228A28.48,28.48,0,0,1,15.82,308.6ZM307.2,309.94h0a28.454,28.454,0,0,1,15.785-23.877l89.651-44.387s.032-.032.032-.048l1.979-25.9c4.437-58.129-39.423-110.48-97.631-113.736A104.425,104.425,0,0,0,207.22,198.183h0a28.454,28.454,0,0,1-15.785,23.877l-89.651,44.387s-.032.032-.032.048l-1.979,25.9C95.336,350.528,139.2,402.879,197.4,406.135A104.426,104.426,0,0,0,307.2,309.94Z" transform="translate(0 0)" fill="#D9FAA6"/>
  </g>
</svg>
